<svg width="439" height="160" viewBox="0 0 439 160" fill="none" xmlns="http://www.w3.org/2000/svg">
<path d="M29.02 38.2V43H0.1V0.399998H28.48V5.2H5.5V19H25.48V23.5H5.5V38.2H29.02ZM37.6281 0.399998L50.4681 18.04L63.3081 0.399998H69.3681L53.4681 22L68.8881 43H62.8281L50.4681 25.96L38.1081 43H31.9881L47.4081 22L31.5081 0.399998H37.6281ZM74.6313 43V0.399998H92.3913C94.2713 0.399998 95.9913 0.799997 97.5513 1.6C99.1113 2.36 100.471 3.4 101.631 4.72C102.791 6 103.691 7.46 104.331 9.1C104.971 10.7 105.291 12.34 105.291 14.02C105.291 16.34 104.771 18.56 103.731 20.68C102.691 22.76 101.231 24.46 99.3513 25.78C97.4713 27.06 95.2713 27.7 92.7513 27.7H80.0313V43H74.6313ZM80.0313 22.9H92.4513C93.9313 22.9 95.2113 22.5 96.2913 21.7C97.4113 20.9 98.2713 19.82 98.8713 18.46C99.5113 17.1 99.8312 15.62 99.8312 14.02C99.8312 12.34 99.4713 10.84 98.7513 9.52C98.0313 8.16 97.0913 7.1 95.9313 6.34C94.7713 5.58 93.4913 5.2 92.0913 5.2H80.0313V22.9ZM112.014 43V0.399998H117.414V38.2H141.174V43H112.014ZM163.044 43.3C160.044 43.3 157.324 42.7 154.884 41.5C152.444 40.3 150.324 38.68 148.524 36.64C146.764 34.56 145.404 32.24 144.444 29.68C143.484 27.08 143.004 24.42 143.004 21.7C143.004 18.86 143.504 16.16 144.504 13.6C145.544 11 146.964 8.7 148.764 6.7C150.604 4.66 152.744 3.06 155.184 1.9C157.624 0.699997 160.284 0.099998 163.164 0.099998C166.164 0.099998 168.884 0.719998 171.324 1.96C173.764 3.2 175.864 4.86 177.624 6.94C179.384 9.02 180.744 11.34 181.704 13.9C182.664 16.46 183.144 19.08 183.144 21.76C183.144 24.6 182.644 27.32 181.644 29.92C180.644 32.48 179.224 34.78 177.384 36.82C175.584 38.82 173.464 40.4 171.024 41.56C168.584 42.72 165.924 43.3 163.044 43.3ZM148.464 21.7C148.464 23.86 148.804 25.96 149.484 28C150.204 30 151.204 31.78 152.484 33.34C153.764 34.9 155.304 36.14 157.104 37.06C158.904 37.98 160.904 38.44 163.104 38.44C165.384 38.44 167.424 37.96 169.224 37C171.024 36.04 172.544 34.76 173.784 33.16C175.064 31.56 176.024 29.76 176.664 27.76C177.344 25.76 177.684 23.74 177.684 21.7C177.684 19.54 177.324 17.46 176.604 15.46C175.924 13.46 174.924 11.68 173.604 10.12C172.324 8.52 170.784 7.28 168.984 6.4C167.224 5.48 165.264 5.02 163.104 5.02C160.824 5.02 158.784 5.5 156.984 6.46C155.184 7.38 153.644 8.64 152.364 10.24C151.124 11.84 150.164 13.64 149.484 15.64C148.804 17.6 148.464 19.62 148.464 21.7ZM190.647 43V0.399998H208.887C210.767 0.399998 212.487 0.799997 214.047 1.6C215.607 2.36 216.967 3.4 218.127 4.72C219.287 6 220.187 7.46 220.827 9.1C221.467 10.7 221.787 12.34 221.787 14.02C221.787 15.98 221.407 17.84 220.647 19.6C219.927 21.36 218.887 22.86 217.527 24.1C216.207 25.34 214.647 26.2 212.847 26.68L223.167 43H217.047L207.327 27.7H196.047V43H190.647ZM196.047 22.9H208.947C210.427 22.9 211.707 22.5 212.787 21.7C213.907 20.86 214.767 19.76 215.367 18.4C216.007 17.04 216.327 15.58 216.327 14.02C216.327 12.42 215.967 10.96 215.247 9.64C214.527 8.28 213.587 7.2 212.427 6.4C211.267 5.6 209.987 5.2 208.587 5.2H196.047V22.9ZM259 38.2V43H230.08V0.399998H258.46V5.2H235.48V19H255.46V23.5H235.48V38.2H259ZM281.036 0.399998L293.936 22.6L306.956 0.399998H312.836L296.636 27.46V43H291.236V27.34L275.096 0.399998H281.036ZM333.259 43.3C330.259 43.3 327.539 42.7 325.099 41.5C322.659 40.3 320.539 38.68 318.739 36.64C316.979 34.56 315.619 32.24 314.659 29.68C313.699 27.08 313.219 24.42 313.219 21.7C313.219 18.86 313.719 16.16 314.719 13.6C315.759 11 317.179 8.7 318.979 6.7C320.819 4.66 322.959 3.06 325.399 1.9C327.839 0.699997 330.499 0.099998 333.379 0.099998C336.379 0.099998 339.099 0.719998 341.539 1.96C343.979 3.2 346.079 4.86 347.839 6.94C349.599 9.02 350.959 11.34 351.919 13.9C352.879 16.46 353.359 19.08 353.359 21.76C353.359 24.6 352.859 27.32 351.859 29.92C350.859 32.48 349.439 34.78 347.599 36.82C345.799 38.82 343.679 40.4 341.239 41.56C338.799 42.72 336.139 43.3 333.259 43.3ZM318.679 21.7C318.679 23.86 319.019 25.96 319.699 28C320.419 30 321.419 31.78 322.699 33.34C323.979 34.9 325.519 36.14 327.319 37.06C329.119 37.98 331.119 38.44 333.319 38.44C335.599 38.44 337.639 37.96 339.439 37C341.239 36.04 342.759 34.76 343.999 33.16C345.279 31.56 346.239 29.76 346.879 27.76C347.559 25.76 347.899 23.74 347.899 21.7C347.899 19.54 347.539 17.46 346.819 15.46C346.139 13.46 345.139 11.68 343.819 10.12C342.539 8.52 340.999 7.28 339.199 6.4C337.439 5.48 335.479 5.02 333.319 5.02C331.039 5.02 328.999 5.5 327.199 6.46C325.399 7.38 323.859 8.64 322.579 10.24C321.339 11.84 320.379 13.64 319.699 15.64C319.019 17.6 318.679 19.62 318.679 21.7ZM378.442 43.3C375.042 43.3 372.182 42.72 369.862 41.56C367.542 40.36 365.682 38.76 364.282 36.76C362.882 34.72 361.862 32.42 361.222 29.86C360.582 27.3 360.262 24.66 360.262 21.94V0.399998H365.662V21.94C365.662 24.02 365.862 26.06 366.262 28.06C366.702 30.02 367.402 31.78 368.362 33.34C369.322 34.9 370.622 36.14 372.262 37.06C373.902 37.98 375.942 38.44 378.382 38.44C380.862 38.44 382.922 37.98 384.562 37.06C386.202 36.1 387.502 34.84 388.462 33.28C389.422 31.68 390.102 29.9 390.502 27.94C390.942 25.98 391.162 23.98 391.162 21.94V0.399998H396.562V21.94C396.562 24.82 396.222 27.56 395.542 30.16C394.902 32.72 393.862 34.98 392.422 36.94C390.982 38.9 389.102 40.46 386.782 41.62C384.502 42.74 381.722 43.3 378.442 43.3ZM406.155 43V0.399998H424.395C426.275 0.399998 427.995 0.799997 429.555 1.6C431.115 2.36 432.475 3.4 433.635 4.72C434.795 6 435.695 7.46 436.335 9.1C436.975 10.7 437.295 12.34 437.295 14.02C437.295 15.98 436.915 17.84 436.155 19.6C435.435 21.36 434.395 22.86 433.035 24.1C431.715 25.34 430.155 26.2 428.355 26.68L438.675 43H432.555L422.835 27.7H411.555V43H406.155ZM411.555 22.9H424.455C425.935 22.9 427.215 22.5 428.295 21.7C429.415 20.86 430.275 19.76 430.875 18.4C431.515 17.04 431.835 15.58 431.835 14.02C431.835 12.42 431.475 10.96 430.755 9.64C430.035 8.28 429.095 7.2 427.935 6.4C426.775 5.6 425.495 5.2 424.095 5.2H411.555V22.9ZM61.3 89V160H50V128.7H14.2V160H3V89H14.2V118.7H50V89H61.3ZM77.3164 160V89H88.5164V160H77.3164ZM109.062 89L130.463 146.3L151.763 89H163.663L135.763 160H125.163L97.1625 89H109.062ZM221.036 150.1V160H172.336V89H220.136V98.9H183.536V119.1H215.236V128.4H183.536V150.1H221.036Z" fill="black"/>
</svg>
