<svg width="1336" height="191" viewBox="0 0 1336 191" fill="none" xmlns="http://www.w3.org/2000/svg">
<path d="M31.5 37.85C31.5 39.6833 31.0333 41.2833 30.1 42.65C29.1667 44.0167 27.9 45.0833 26.3 45.85C24.7333 46.6167 23 47 21.1 47H4.25V11.5H21.9C23.5667 11.5 25 11.95 26.2 12.85C27.4333 13.7167 28.3667 14.85 29 16.25C29.6667 17.6167 30 19.05 30 20.55C30 22.2833 29.55 23.9167 28.65 25.45C27.7833 26.95 26.5333 28.0667 24.9 28.8C26.9333 29.4 28.5333 30.5167 29.7 32.15C30.9 33.75 31.5 35.65 31.5 37.85ZM26.95 37.05C26.95 35.95 26.7 34.9333 26.2 34C25.7333 33.0667 25.0833 32.3167 24.25 31.75C23.45 31.1833 22.5167 30.9 21.45 30.9H8.75V43.1H21.1C22.2 43.1 23.1833 42.8167 24.05 42.25C24.95 41.6833 25.65 40.95 26.15 40.05C26.6833 39.1167 26.95 38.1167 26.95 37.05ZM8.75 15.4V27.25H20.05C21.1167 27.25 22.05 26.9833 22.85 26.45C23.6833 25.9167 24.3333 25.2 24.8 24.3C25.3 23.4 25.55 22.4167 25.55 21.35C25.55 20.2167 25.3167 19.2167 24.85 18.35C24.4167 17.45 23.8 16.7333 23 16.2C22.2333 15.6667 21.35 15.4 20.35 15.4H8.75ZM61.8949 43V47H37.7949V11.5H61.4449V15.5H42.2949V27H58.9449V30.75H42.2949V43H61.8949ZM80.7148 47V11.5H95.5148C97.0815 11.5 98.5148 11.8333 99.8148 12.5C101.115 13.1333 102.248 14 103.215 15.1C104.182 16.1667 104.932 17.3833 105.465 18.75C105.998 20.0833 106.265 21.45 106.265 22.85C106.265 24.7833 105.832 26.6333 104.965 28.4C104.098 30.1333 102.882 31.55 101.315 32.65C99.7482 33.7167 97.9148 34.25 95.8148 34.25H85.2148V47H80.7148ZM85.2148 30.25H95.5648C96.7982 30.25 97.8648 29.9167 98.7648 29.25C99.6982 28.5833 100.415 27.6833 100.915 26.55C101.448 25.4167 101.715 24.1833 101.715 22.85C101.715 21.45 101.415 20.2 100.815 19.1C100.215 17.9667 99.4315 17.0833 98.4648 16.45C97.4982 15.8167 96.4315 15.5 95.2648 15.5H85.2148V30.25ZM120.128 11.5H123.928L138.428 47H133.628L129.428 36.6H114.528L110.378 47H105.578L120.128 11.5ZM128.428 33.1L122.028 16.7L115.428 33.1H128.428ZM143.166 47V11.5H158.366C159.933 11.5 161.366 11.8333 162.666 12.5C163.966 13.1333 165.099 14 166.066 15.1C167.033 16.1667 167.783 17.3833 168.316 18.75C168.849 20.0833 169.116 21.45 169.116 22.85C169.116 24.4833 168.799 26.0333 168.166 27.5C167.566 28.9667 166.699 30.2167 165.566 31.25C164.466 32.2833 163.166 33 161.666 33.4L170.266 47H165.166L157.066 34.25H147.666V47H143.166ZM147.666 30.25H158.416C159.649 30.25 160.716 29.9167 161.616 29.25C162.549 28.55 163.266 27.6333 163.766 26.5C164.299 25.3667 164.566 24.15 164.566 22.85C164.566 21.5167 164.266 20.3 163.666 19.2C163.066 18.0667 162.283 17.1667 161.316 16.5C160.349 15.8333 159.283 15.5 158.116 15.5H147.666V30.25ZM201.334 15.5H189.084V47H184.584V15.5H172.334V11.5H201.334V15.5ZM231.98 47.25C229.48 47.25 227.213 46.75 225.18 45.75C223.147 44.75 221.38 43.4 219.88 41.7C218.413 39.9667 217.28 38.0333 216.48 35.9C215.68 33.7333 215.28 31.5167 215.28 29.25C215.28 26.8833 215.697 24.6333 216.53 22.5C217.397 20.3333 218.58 18.4167 220.08 16.75C221.613 15.05 223.397 13.7167 225.43 12.75C227.463 11.75 229.68 11.25 232.08 11.25C234.58 11.25 236.847 11.7667 238.88 12.8C240.913 13.8333 242.663 15.2167 244.13 16.95C245.597 18.6833 246.73 20.6167 247.53 22.75C248.33 24.8833 248.73 27.0667 248.73 29.3C248.73 31.6667 248.313 33.9333 247.48 36.1C246.647 38.2333 245.463 40.15 243.93 41.85C242.43 43.5167 240.663 44.8333 238.63 45.8C236.597 46.7667 234.38 47.25 231.98 47.25ZM219.83 29.25C219.83 31.05 220.113 32.8 220.68 34.5C221.28 36.1667 222.113 37.65 223.18 38.95C224.247 40.25 225.53 41.2833 227.03 42.05C228.53 42.8167 230.197 43.2 232.03 43.2C233.93 43.2 235.63 42.8 237.13 42C238.63 41.2 239.897 40.1333 240.93 38.8C241.997 37.4667 242.797 35.9667 243.33 34.3C243.897 32.6333 244.18 30.95 244.18 29.25C244.18 27.45 243.88 25.7167 243.28 24.05C242.713 22.3833 241.88 20.9 240.78 19.6C239.713 18.2667 238.43 17.2333 236.93 16.5C235.463 15.7333 233.83 15.35 232.03 15.35C230.13 15.35 228.43 15.75 226.93 16.55C225.43 17.3167 224.147 18.3667 223.08 19.7C222.047 21.0333 221.247 22.5333 220.68 24.2C220.113 25.8333 219.83 27.5167 219.83 29.25ZM254.982 47V11.5H278.432V15.5H259.482V27.35H275.432V31.1H259.482V47H254.982ZM295.009 47V11.5H310.709C312.342 11.5 313.842 11.8333 315.209 12.5C316.609 13.1667 317.809 14.0667 318.809 15.2C319.842 16.3333 320.625 17.6 321.159 19C321.725 20.4 322.009 21.8333 322.009 23.3C322.009 24.8 321.742 26.25 321.209 27.65C320.709 29.0167 319.975 30.2167 319.009 31.25C318.042 32.2833 316.909 33.0833 315.609 33.65L323.709 47H316.109L308.809 35.1H301.909V47H295.009ZM301.909 29.05H310.559C311.425 29.05 312.192 28.8 312.859 28.3C313.525 27.7667 314.059 27.0667 314.459 26.2C314.859 25.3333 315.059 24.3667 315.059 23.3C315.059 22.1667 314.825 21.1833 314.359 20.35C313.892 19.4833 313.292 18.8 312.559 18.3C311.859 17.8 311.092 17.55 310.259 17.55H301.909V29.05ZM352.911 40.95V47H328.261V11.5H352.461V17.55H335.161V26.1H350.111V31.7H335.161V40.95H352.911ZM361.94 11.5L371.54 38.8L381.04 11.5H388.29L374.84 47H368.19L354.69 11.5H361.94ZM405.862 47.25C403.262 47.25 400.895 46.75 398.762 45.75C396.662 44.75 394.845 43.4 393.312 41.7C391.812 39.9667 390.645 38.0333 389.812 35.9C388.978 33.7333 388.562 31.5167 388.562 29.25C388.562 26.8833 388.995 24.6333 389.862 22.5C390.762 20.3333 391.978 18.4167 393.512 16.75C395.078 15.05 396.912 13.7167 399.012 12.75C401.145 11.75 403.478 11.25 406.012 11.25C408.578 11.25 410.912 11.7667 413.012 12.8C415.145 13.8333 416.962 15.2167 418.462 16.95C419.962 18.6833 421.128 20.6167 421.962 22.75C422.795 24.8833 423.212 27.0833 423.212 29.35C423.212 31.6833 422.778 33.9333 421.912 36.1C421.045 38.2333 419.828 40.15 418.262 41.85C416.728 43.5167 414.895 44.8333 412.762 45.8C410.662 46.7667 408.362 47.25 405.862 47.25ZM395.562 29.25C395.562 30.7833 395.795 32.2667 396.262 33.7C396.728 35.1333 397.395 36.4167 398.262 37.55C399.162 38.65 400.245 39.5333 401.512 40.2C402.812 40.8333 404.278 41.15 405.912 41.15C407.578 41.15 409.062 40.8167 410.362 40.15C411.662 39.45 412.745 38.5333 413.612 37.4C414.478 36.2333 415.128 34.95 415.562 33.55C416.028 32.1167 416.262 30.6833 416.262 29.25C416.262 27.7167 416.012 26.25 415.512 24.85C415.045 23.4167 414.362 22.15 413.462 21.05C412.595 19.9167 411.512 19.0333 410.212 18.4C408.945 17.7333 407.512 17.4 405.912 17.4C404.212 17.4 402.712 17.75 401.412 18.45C400.145 19.1167 399.078 20.0167 398.212 21.15C397.345 22.2833 396.678 23.55 396.212 24.95C395.778 26.35 395.562 27.7833 395.562 29.25ZM428.505 47V11.5H435.405V40.95H453.505V47H428.505ZM471.826 47.25C468.993 47.25 466.576 46.7833 464.576 45.85C462.61 44.8833 461.01 43.5667 459.776 41.9C458.576 40.2333 457.693 38.35 457.126 36.25C456.56 34.1167 456.276 31.9 456.276 29.6V11.5H463.176V29.6C463.176 31.0667 463.31 32.5 463.576 33.9C463.876 35.2667 464.36 36.5 465.026 37.6C465.693 38.7 466.576 39.5667 467.676 40.2C468.776 40.8333 470.143 41.15 471.776 41.15C473.443 41.15 474.826 40.8333 475.926 40.2C477.06 39.5333 477.943 38.65 478.576 37.55C479.243 36.45 479.726 35.2167 480.026 33.85C480.326 32.45 480.476 31.0333 480.476 29.6V11.5H487.326V29.6C487.326 32.0333 487.026 34.3167 486.426 36.45C485.86 38.5833 484.943 40.4667 483.676 42.1C482.443 43.7 480.843 44.9667 478.876 45.9C476.91 46.8 474.56 47.25 471.826 47.25ZM520.826 17.55H509.476V47H502.626V17.55H491.276V11.5H520.826V17.55ZM525.233 47V11.5H532.133V47H525.233ZM554.69 47.25C552.09 47.25 549.723 46.75 547.59 45.75C545.49 44.75 543.673 43.4 542.14 41.7C540.64 39.9667 539.473 38.0333 538.64 35.9C537.807 33.7333 537.39 31.5167 537.39 29.25C537.39 26.8833 537.823 24.6333 538.69 22.5C539.59 20.3333 540.807 18.4167 542.34 16.75C543.907 15.05 545.74 13.7167 547.84 12.75C549.973 11.75 552.307 11.25 554.84 11.25C557.407 11.25 559.74 11.7667 561.84 12.8C563.973 13.8333 565.79 15.2167 567.29 16.95C568.79 18.6833 569.957 20.6167 570.79 22.75C571.623 24.8833 572.04 27.0833 572.04 29.35C572.04 31.6833 571.607 33.9333 570.74 36.1C569.873 38.2333 568.657 40.15 567.09 41.85C565.557 43.5167 563.723 44.8333 561.59 45.8C559.49 46.7667 557.19 47.25 554.69 47.25ZM544.39 29.25C544.39 30.7833 544.623 32.2667 545.09 33.7C545.557 35.1333 546.223 36.4167 547.09 37.55C547.99 38.65 549.073 39.5333 550.34 40.2C551.64 40.8333 553.107 41.15 554.74 41.15C556.407 41.15 557.89 40.8167 559.19 40.15C560.49 39.45 561.573 38.5333 562.44 37.4C563.307 36.2333 563.957 34.95 564.39 33.55C564.857 32.1167 565.09 30.6833 565.09 29.25C565.09 27.7167 564.84 26.25 564.34 24.85C563.873 23.4167 563.19 22.15 562.29 21.05C561.423 19.9167 560.34 19.0333 559.04 18.4C557.773 17.7333 556.34 17.4 554.74 17.4C553.04 17.4 551.54 17.75 550.24 18.45C548.973 19.1167 547.907 20.0167 547.04 21.15C546.173 22.2833 545.507 23.55 545.04 24.95C544.607 26.35 544.39 27.7833 544.39 29.25ZM584.233 24.2V47H577.333V11.5H582.833L601.183 34.9V11.55H608.083V47H602.333L584.233 24.2ZM625.118 11.5H632.118L645.168 47H638.068L634.768 38.15H622.368L619.118 47H612.018L625.118 11.5ZM633.518 33.3L628.618 18.65L623.518 33.3H633.518ZM649.061 47V11.5H664.761C666.395 11.5 667.895 11.8333 669.261 12.5C670.661 13.1667 671.861 14.0667 672.861 15.2C673.895 16.3333 674.678 17.6 675.211 19C675.778 20.4 676.061 21.8333 676.061 23.3C676.061 24.8 675.795 26.25 675.261 27.65C674.761 29.0167 674.028 30.2167 673.061 31.25C672.095 32.2833 670.961 33.0833 669.661 33.65L677.761 47H670.161L662.861 35.1H655.961V47H649.061ZM655.961 29.05H664.611C665.478 29.05 666.245 28.8 666.911 28.3C667.578 27.7667 668.111 27.0667 668.511 26.2C668.911 25.3333 669.111 24.3667 669.111 23.3C669.111 22.1667 668.878 21.1833 668.411 20.35C667.945 19.4833 667.345 18.8 666.611 18.3C665.911 17.8 665.145 17.55 664.311 17.55H655.961V29.05ZM684.507 11.5L693.257 28.2L702.157 11.5H709.607L696.707 34.6V47H689.857V34.5L677.007 11.5H684.507ZM723.671 47V11.5H738.721C740.354 11.5 741.854 11.8333 743.221 12.5C744.587 13.1667 745.771 14.0667 746.771 15.2C747.804 16.3333 748.604 17.6 749.171 19C749.737 20.4 750.021 21.8333 750.021 23.3C750.021 25.3 749.554 27.2 748.621 29C747.687 30.8 746.404 32.2667 744.771 33.4C743.137 34.5333 741.204 35.1 738.971 35.1H730.571V47H723.671ZM730.571 29.05H738.571C739.404 29.05 740.154 28.8167 740.821 28.35C741.487 27.8833 742.021 27.2167 742.421 26.35C742.821 25.45 743.021 24.4333 743.021 23.3C743.021 22.0667 742.787 21.0167 742.321 20.15C741.887 19.2833 741.304 18.6333 740.571 18.2C739.871 17.7667 739.104 17.55 738.271 17.55H730.571V29.05ZM754.823 47V11.5H770.523C772.156 11.5 773.656 11.8333 775.023 12.5C776.423 13.1667 777.623 14.0667 778.623 15.2C779.656 16.3333 780.44 17.6 780.973 19C781.54 20.4 781.823 21.8333 781.823 23.3C781.823 24.8 781.556 26.25 781.023 27.65C780.523 29.0167 779.79 30.2167 778.823 31.25C777.856 32.2833 776.723 33.0833 775.423 33.65L783.523 47H775.923L768.623 35.1H761.723V47H754.823ZM761.723 29.05H770.373C771.24 29.05 772.006 28.8 772.673 28.3C773.34 27.7667 773.873 27.0667 774.273 26.2C774.673 25.3333 774.873 24.3667 774.873 23.3C774.873 22.1667 774.64 21.1833 774.173 20.35C773.706 19.4833 773.106 18.8 772.373 18.3C771.673 17.8 770.906 17.55 770.073 17.55H761.723V29.05ZM803.03 47.25C800.43 47.25 798.063 46.75 795.93 45.75C793.83 44.75 792.013 43.4 790.48 41.7C788.98 39.9667 787.813 38.0333 786.98 35.9C786.146 33.7333 785.73 31.5167 785.73 29.25C785.73 26.8833 786.163 24.6333 787.03 22.5C787.93 20.3333 789.146 18.4167 790.68 16.75C792.246 15.05 794.08 13.7167 796.18 12.75C798.313 11.75 800.646 11.25 803.18 11.25C805.746 11.25 808.08 11.7667 810.18 12.8C812.313 13.8333 814.13 15.2167 815.63 16.95C817.13 18.6833 818.296 20.6167 819.13 22.75C819.963 24.8833 820.38 27.0833 820.38 29.35C820.38 31.6833 819.946 33.9333 819.08 36.1C818.213 38.2333 816.996 40.15 815.43 41.85C813.896 43.5167 812.063 44.8333 809.93 45.8C807.83 46.7667 805.53 47.25 803.03 47.25ZM792.73 29.25C792.73 30.7833 792.963 32.2667 793.43 33.7C793.896 35.1333 794.563 36.4167 795.43 37.55C796.33 38.65 797.413 39.5333 798.68 40.2C799.98 40.8333 801.446 41.15 803.08 41.15C804.746 41.15 806.23 40.8167 807.53 40.15C808.83 39.45 809.913 38.5333 810.78 37.4C811.646 36.2333 812.296 34.95 812.73 33.55C813.196 32.1167 813.43 30.6833 813.43 29.25C813.43 27.7167 813.18 26.25 812.68 24.85C812.213 23.4167 811.53 22.15 810.63 21.05C809.763 19.9167 808.68 19.0333 807.38 18.4C806.113 17.7333 804.68 17.4 803.08 17.4C801.38 17.4 799.88 17.75 798.58 18.45C797.313 19.1167 796.246 20.0167 795.38 21.15C794.513 22.2833 793.846 23.55 793.38 24.95C792.946 26.35 792.73 27.7833 792.73 29.25ZM822.75 39.75C823.183 40.05 823.95 40.4167 825.05 40.85C826.15 41.25 827.45 41.45 828.95 41.45C830.25 41.45 831.316 41.2333 832.15 40.8C832.983 40.3333 833.616 39.65 834.05 38.75C834.516 37.85 834.816 36.6833 834.95 35.25C835.116 33.8167 835.2 32.1 835.2 30.1V11.5H842.1V29.55C842.1 32.2167 841.95 34.65 841.65 36.85C841.35 39.05 840.766 40.95 839.9 42.55C839.033 44.15 837.716 45.3833 835.95 46.25C834.216 47.1167 831.9 47.55 829 47.55C827.4 47.55 825.966 47.3667 824.7 47C823.433 46.6333 822.266 46.0833 821.2 45.35L822.75 39.75ZM873.76 40.95V47H849.11V11.5H873.31V17.55H856.01V26.1H870.96V31.7H856.01V40.95H873.76ZM876.355 29C876.355 26.8333 876.738 24.7167 877.505 22.65C878.305 20.55 879.455 18.65 880.955 16.95C882.455 15.2167 884.288 13.85 886.455 12.85C888.621 11.8167 891.088 11.3 893.855 11.3C897.121 11.3 899.938 12.0167 902.305 13.45C904.705 14.8833 906.488 16.75 907.655 19.05L902.355 22.7C901.755 21.3667 900.971 20.3167 900.005 19.55C899.038 18.75 898.005 18.2 896.905 17.9C895.805 17.5667 894.721 17.4 893.655 17.4C891.921 17.4 890.405 17.75 889.105 18.45C887.838 19.15 886.771 20.0667 885.905 21.2C885.038 22.3333 884.388 23.6 883.955 25C883.555 26.4 883.355 27.8 883.355 29.2C883.355 30.7667 883.605 32.2833 884.105 33.75C884.605 35.1833 885.305 36.4667 886.205 37.6C887.138 38.7 888.238 39.5833 889.505 40.25C890.805 40.8833 892.221 41.2 893.755 41.2C894.855 41.2 895.971 41.0167 897.105 40.65C898.238 40.2833 899.288 39.7 900.255 38.9C901.221 38.1 901.971 37.0667 902.505 35.8L908.155 39.05C907.455 40.8167 906.305 42.3167 904.705 43.55C903.138 44.7833 901.371 45.7167 899.405 46.35C897.438 46.9833 895.488 47.3 893.555 47.3C891.021 47.3 888.705 46.7833 886.605 45.75C884.505 44.6833 882.688 43.2833 881.155 41.55C879.655 39.7833 878.471 37.8167 877.605 35.65C876.771 33.45 876.355 31.2333 876.355 29ZM939.332 17.55H927.982V47H921.132V17.55H909.782V11.5H939.332V17.55ZM964.889 20.8C964.656 20.5667 964.222 20.25 963.589 19.85C962.989 19.45 962.239 19.0667 961.339 18.7C960.472 18.3333 959.522 18.0167 958.489 17.75C957.456 17.45 956.406 17.3 955.339 17.3C953.472 17.3 952.056 17.65 951.089 18.35C950.156 19.05 949.689 20.0333 949.689 21.3C949.689 22.2667 949.989 23.0333 950.589 23.6C951.189 24.1667 952.089 24.65 953.289 25.05C954.489 25.45 955.989 25.8833 957.789 26.35C960.122 26.9167 962.139 27.6167 963.839 28.45C965.572 29.25 966.889 30.3167 967.789 31.65C968.722 32.95 969.189 34.6833 969.189 36.85C969.189 38.75 968.839 40.3833 968.139 41.75C967.439 43.0833 966.472 44.1667 965.239 45C964.006 45.8333 962.606 46.45 961.039 46.85C959.472 47.2167 957.806 47.4 956.039 47.4C954.272 47.4 952.506 47.2167 950.739 46.85C948.972 46.4833 947.272 45.9667 945.639 45.3C944.006 44.6 942.506 43.7667 941.139 42.8L944.189 36.85C944.489 37.15 945.022 37.55 945.789 38.05C946.556 38.5167 947.489 39 948.589 39.5C949.689 39.9667 950.889 40.3667 952.189 40.7C953.489 41.0333 954.806 41.2 956.139 41.2C958.006 41.2 959.422 40.8833 960.389 40.25C961.356 39.6167 961.839 38.7167 961.839 37.55C961.839 36.4833 961.456 35.65 960.689 35.05C959.922 34.45 958.856 33.9333 957.489 33.5C956.122 33.0333 954.506 32.5333 952.639 32C950.406 31.3667 948.539 30.6667 947.039 29.9C945.539 29.1 944.422 28.1 943.689 26.9C942.956 25.7 942.589 24.2 942.589 22.4C942.589 19.9667 943.156 17.9333 944.289 16.3C945.456 14.6333 947.022 13.3833 948.989 12.55C950.956 11.6833 953.139 11.25 955.539 11.25C957.206 11.25 958.772 11.4333 960.239 11.8C961.739 12.1667 963.139 12.65 964.439 13.25C965.739 13.85 966.906 14.5 967.939 15.2L964.889 20.8ZM973.603 47V39.8H979.103V47H973.603Z" fill="black"/>
<path d="M465.95 118V90.9L454.25 111.75H451.5L439.75 90.9V118H435.25V82.5H440L452.85 105.55L465.75 82.5H470.45V118H465.95ZM489.751 82.5H493.551L508.051 118H503.251L499.051 107.6H484.151L480.001 118H475.201L489.751 82.5ZM498.051 104.1L491.651 87.7L485.051 104.1H498.051ZM512.789 118V82.5H525.089C528.889 82.5 532.056 83.3 534.589 84.9C537.156 86.4667 539.072 88.6 540.339 91.3C541.606 93.9667 542.239 96.9333 542.239 100.2C542.239 103.8 541.539 106.933 540.139 109.6C538.739 112.267 536.756 114.333 534.189 115.8C531.622 117.267 528.589 118 525.089 118H512.789ZM537.689 100.2C537.689 97.5333 537.189 95.1667 536.189 93.1C535.222 91.0333 533.806 89.4167 531.939 88.25C530.072 87.0833 527.789 86.5 525.089 86.5H517.289V114H525.089C527.822 114 530.122 113.4 531.989 112.2C533.856 110.967 535.272 109.317 536.239 107.25C537.206 105.15 537.689 102.8 537.689 100.2ZM572.68 114V118H548.58V82.5H572.23V86.5H553.08V98H569.73V101.75H553.08V114H572.68ZM618.75 108.85C618.75 110.683 618.283 112.283 617.35 113.65C616.417 115.017 615.15 116.083 613.55 116.85C611.983 117.617 610.25 118 608.35 118H591.5V82.5H609.15C610.817 82.5 612.25 82.95 613.45 83.85C614.683 84.7167 615.617 85.85 616.25 87.25C616.917 88.6167 617.25 90.05 617.25 91.55C617.25 93.2833 616.8 94.9167 615.9 96.45C615.033 97.95 613.783 99.0667 612.15 99.8C614.183 100.4 615.783 101.517 616.95 103.15C618.15 104.75 618.75 106.65 618.75 108.85ZM614.2 108.05C614.2 106.95 613.95 105.933 613.45 105C612.983 104.067 612.333 103.317 611.5 102.75C610.7 102.183 609.767 101.9 608.7 101.9H596V114.1H608.35C609.45 114.1 610.433 113.817 611.3 113.25C612.2 112.683 612.9 111.95 613.4 111.05C613.933 110.117 614.2 109.117 614.2 108.05ZM596 86.4V98.25H607.3C608.367 98.25 609.3 97.9833 610.1 97.45C610.933 96.9167 611.583 96.2 612.05 95.3C612.55 94.4 612.8 93.4167 612.8 92.35C612.8 91.2167 612.567 90.2167 612.1 89.35C611.667 88.45 611.05 87.7333 610.25 87.2C609.483 86.6667 608.6 86.4 607.6 86.4H596ZM624.832 82.5L635.582 101L646.432 82.5H651.332L637.832 105.05V118H633.332V104.95L619.882 82.5H624.832ZM666.487 118V82.5H682.187C683.82 82.5 685.32 82.8333 686.687 83.5C688.087 84.1667 689.287 85.0667 690.287 86.2C691.32 87.3333 692.104 88.6 692.637 90C693.204 91.4 693.487 92.8333 693.487 94.3C693.487 95.8 693.22 97.25 692.687 98.65C692.187 100.017 691.454 101.217 690.487 102.25C689.52 103.283 688.387 104.083 687.087 104.65L695.187 118H687.587L680.287 106.1H673.387V118H666.487ZM673.387 100.05H682.037C682.904 100.05 683.67 99.8 684.337 99.3C685.004 98.7667 685.537 98.0667 685.937 97.2C686.337 96.3333 686.537 95.3667 686.537 94.3C686.537 93.1667 686.304 92.1833 685.837 91.35C685.37 90.4833 684.77 89.8 684.037 89.3C683.337 88.8 682.57 88.55 681.737 88.55H673.387V100.05ZM724.389 111.95V118H699.739V82.5H723.939V88.55H706.639V97.1H721.589V102.7H706.639V111.95H724.389ZM733.418 82.5L743.018 109.8L752.518 82.5H759.768L746.318 118H739.668L726.168 82.5H733.418ZM777.34 118.25C774.74 118.25 772.374 117.75 770.24 116.75C768.14 115.75 766.324 114.4 764.79 112.7C763.29 110.967 762.124 109.033 761.29 106.9C760.457 104.733 760.04 102.517 760.04 100.25C760.04 97.8833 760.474 95.6333 761.34 93.5C762.24 91.3333 763.457 89.4167 764.99 87.75C766.557 86.05 768.39 84.7167 770.49 83.75C772.624 82.75 774.957 82.25 777.49 82.25C780.057 82.25 782.39 82.7667 784.49 83.8C786.624 84.8333 788.44 86.2167 789.94 87.95C791.44 89.6833 792.607 91.6167 793.44 93.75C794.274 95.8833 794.69 98.0833 794.69 100.35C794.69 102.683 794.257 104.933 793.39 107.1C792.524 109.233 791.307 111.15 789.74 112.85C788.207 114.517 786.374 115.833 784.24 116.8C782.14 117.767 779.84 118.25 777.34 118.25ZM767.04 100.25C767.04 101.783 767.274 103.267 767.74 104.7C768.207 106.133 768.874 107.417 769.74 108.55C770.64 109.65 771.724 110.533 772.99 111.2C774.29 111.833 775.757 112.15 777.39 112.15C779.057 112.15 780.54 111.817 781.84 111.15C783.14 110.45 784.224 109.533 785.09 108.4C785.957 107.233 786.607 105.95 787.04 104.55C787.507 103.117 787.74 101.683 787.74 100.25C787.74 98.7167 787.49 97.25 786.99 95.85C786.524 94.4167 785.84 93.15 784.94 92.05C784.074 90.9167 782.99 90.0333 781.69 89.4C780.424 88.7333 778.99 88.4 777.39 88.4C775.69 88.4 774.19 88.75 772.89 89.45C771.624 90.1167 770.557 91.0167 769.69 92.15C768.824 93.2833 768.157 94.55 767.69 95.95C767.257 97.35 767.04 98.7833 767.04 100.25ZM799.983 118V82.5H806.883V111.95H824.983V118H799.983ZM843.305 118.25C840.471 118.25 838.055 117.783 836.055 116.85C834.088 115.883 832.488 114.567 831.255 112.9C830.055 111.233 829.171 109.35 828.605 107.25C828.038 105.117 827.755 102.9 827.755 100.6V82.5H834.655V100.6C834.655 102.067 834.788 103.5 835.055 104.9C835.355 106.267 835.838 107.5 836.505 108.6C837.171 109.7 838.055 110.567 839.155 111.2C840.255 111.833 841.621 112.15 843.255 112.15C844.921 112.15 846.305 111.833 847.405 111.2C848.538 110.533 849.421 109.65 850.055 108.55C850.721 107.45 851.205 106.217 851.505 104.85C851.805 103.45 851.955 102.033 851.955 100.6V82.5H858.805V100.6C858.805 103.033 858.505 105.317 857.905 107.45C857.338 109.583 856.421 111.467 855.155 113.1C853.921 114.7 852.321 115.967 850.355 116.9C848.388 117.8 846.038 118.25 843.305 118.25ZM892.305 88.55H880.955V118H874.105V88.55H862.755V82.5H892.305V88.55ZM896.712 118V82.5H903.612V118H896.712ZM926.168 118.25C923.568 118.25 921.202 117.75 919.068 116.75C916.968 115.75 915.152 114.4 913.618 112.7C912.118 110.967 910.952 109.033 910.118 106.9C909.285 104.733 908.868 102.517 908.868 100.25C908.868 97.8833 909.302 95.6333 910.168 93.5C911.068 91.3333 912.285 89.4167 913.818 87.75C915.385 86.05 917.218 84.7167 919.318 83.75C921.452 82.75 923.785 82.25 926.318 82.25C928.885 82.25 931.218 82.7667 933.318 83.8C935.452 84.8333 937.268 86.2167 938.768 87.95C940.268 89.6833 941.435 91.6167 942.268 93.75C943.102 95.8833 943.518 98.0833 943.518 100.35C943.518 102.683 943.085 104.933 942.218 107.1C941.352 109.233 940.135 111.15 938.568 112.85C937.035 114.517 935.202 115.833 933.068 116.8C930.968 117.767 928.668 118.25 926.168 118.25ZM915.868 100.25C915.868 101.783 916.102 103.267 916.568 104.7C917.035 106.133 917.702 107.417 918.568 108.55C919.468 109.65 920.552 110.533 921.818 111.2C923.118 111.833 924.585 112.15 926.218 112.15C927.885 112.15 929.368 111.817 930.668 111.15C931.968 110.45 933.052 109.533 933.918 108.4C934.785 107.233 935.435 105.95 935.868 104.55C936.335 103.117 936.568 101.683 936.568 100.25C936.568 98.7167 936.318 97.25 935.818 95.85C935.352 94.4167 934.668 93.15 933.768 92.05C932.902 90.9167 931.818 90.0333 930.518 89.4C929.252 88.7333 927.818 88.4 926.218 88.4C924.518 88.4 923.018 88.75 921.718 89.45C920.452 90.1167 919.385 91.0167 918.518 92.15C917.652 93.2833 916.985 94.55 916.518 95.95C916.085 97.35 915.868 98.7833 915.868 100.25ZM955.711 95.2V118H948.811V82.5H954.311L972.661 105.9V82.55H979.561V118H973.811L955.711 95.2ZM996.596 82.5H1003.6L1016.65 118H1009.55L1006.25 109.15H993.846L990.596 118H983.496L996.596 82.5ZM1005 104.3L1000.1 89.65L994.996 104.3H1005ZM1020.54 118V82.5H1036.24C1037.87 82.5 1039.37 82.8333 1040.74 83.5C1042.14 84.1667 1043.34 85.0667 1044.34 86.2C1045.37 87.3333 1046.16 88.6 1046.69 90C1047.26 91.4 1047.54 92.8333 1047.54 94.3C1047.54 95.8 1047.27 97.25 1046.74 98.65C1046.24 100.017 1045.51 101.217 1044.54 102.25C1043.57 103.283 1042.44 104.083 1041.14 104.65L1049.24 118H1041.64L1034.34 106.1H1027.44V118H1020.54ZM1027.44 100.05H1036.09C1036.96 100.05 1037.72 99.8 1038.39 99.3C1039.06 98.7667 1039.59 98.0667 1039.99 97.2C1040.39 96.3333 1040.59 95.3667 1040.59 94.3C1040.59 93.1667 1040.36 92.1833 1039.89 91.35C1039.42 90.4833 1038.82 89.8 1038.09 89.3C1037.39 88.8 1036.62 88.55 1035.79 88.55H1027.44V100.05ZM1055.99 82.5L1064.74 99.2L1073.64 82.5H1081.09L1068.19 105.6V118H1061.34V105.5L1048.49 82.5H1055.99ZM1105.54 82.6H1111.94L1115.99 94.35L1120.09 82.6H1126.44L1120.34 98.75L1124.84 110.05L1134.89 82.5H1142.39L1128.19 118H1122.24L1115.99 103.1L1109.79 118H1103.84L1089.69 82.5H1097.09L1107.19 110.05L1111.59 98.75L1105.54 82.6ZM1159.81 118.25C1157.21 118.25 1154.84 117.75 1152.71 116.75C1150.61 115.75 1148.79 114.4 1147.26 112.7C1145.76 110.967 1144.59 109.033 1143.76 106.9C1142.93 104.733 1142.51 102.517 1142.51 100.25C1142.51 97.8833 1142.94 95.6333 1143.81 93.5C1144.71 91.3333 1145.93 89.4167 1147.46 87.75C1149.03 86.05 1150.86 84.7167 1152.96 83.75C1155.09 82.75 1157.43 82.25 1159.96 82.25C1162.53 82.25 1164.86 82.7667 1166.96 83.8C1169.09 84.8333 1170.91 86.2167 1172.41 87.95C1173.91 89.6833 1175.08 91.6167 1175.91 93.75C1176.74 95.8833 1177.16 98.0833 1177.16 100.35C1177.16 102.683 1176.73 104.933 1175.86 107.1C1174.99 109.233 1173.78 111.15 1172.21 112.85C1170.68 114.517 1168.84 115.833 1166.71 116.8C1164.61 117.767 1162.31 118.25 1159.81 118.25ZM1149.51 100.25C1149.51 101.783 1149.74 103.267 1150.21 104.7C1150.68 106.133 1151.34 107.417 1152.21 108.55C1153.11 109.65 1154.19 110.533 1155.46 111.2C1156.76 111.833 1158.23 112.15 1159.86 112.15C1161.53 112.15 1163.01 111.817 1164.31 111.15C1165.61 110.45 1166.69 109.533 1167.56 108.4C1168.43 107.233 1169.08 105.95 1169.51 104.55C1169.98 103.117 1170.21 101.683 1170.21 100.25C1170.21 98.7167 1169.96 97.25 1169.46 95.85C1168.99 94.4167 1168.31 93.15 1167.41 92.05C1166.54 90.9167 1165.46 90.0333 1164.16 89.4C1162.89 88.7333 1161.46 88.4 1159.86 88.4C1158.16 88.4 1156.66 88.75 1155.36 89.45C1154.09 90.1167 1153.03 91.0167 1152.16 92.15C1151.29 93.2833 1150.63 94.55 1150.16 95.95C1149.73 97.35 1149.51 98.7833 1149.51 100.25ZM1211.4 118V94.7L1202.3 112.05H1198.45L1189.35 94.7V118H1182.45V82.5H1189.85L1200.35 102.7L1210.95 82.5H1218.3V118H1211.4ZM1250.37 111.95V118H1225.72V82.5H1249.92V88.55H1232.62V97.1H1247.57V102.7H1232.62V111.95H1250.37ZM1262.64 95.2V118H1255.74V82.5H1261.24L1279.59 105.9V82.55H1286.49V118H1280.74L1262.64 95.2ZM1293.08 118V110.8H1298.58V118H1293.08Z" fill="black"/>
</svg>
