<svg width="588" height="189" viewBox="0 0 588 189" fill="none" xmlns="http://www.w3.org/2000/svg">
<path d="M56 53.7C56 57.3667 55.0667 60.5667 53.2 63.3C51.3333 66.0333 48.8 68.1667 45.6 69.7C42.4667 71.2333 39 72 35.2 72H1.5V0.999996H36.8C40.1333 0.999996 43 1.9 45.4 3.7C47.8667 5.43333 49.7333 7.7 51 10.5C52.3333 13.2333 53 16.1 53 19.1C53 22.5667 52.1 25.8333 50.3 28.9C48.5667 31.9 46.0667 34.1333 42.8 35.6C46.8667 36.8 50.0667 39.0333 52.4 42.3C54.8 45.5 56 49.3 56 53.7ZM46.9 52.1C46.9 49.9 46.4 47.8667 45.4 46C44.4667 44.1333 43.1667 42.6333 41.5 41.5C39.9 40.3667 38.0333 39.8 35.9 39.8H10.5V64.2H35.2C37.4 64.2 39.3667 63.6333 41.1 62.5C42.9 61.3667 44.3 59.9 45.3 58.1C46.3667 56.2333 46.9 54.2333 46.9 52.1ZM10.5 8.8V32.5H33.1C35.2333 32.5 37.1 31.9667 38.7 30.9C40.3667 29.8333 41.6667 28.4 42.6 26.6C43.6 24.8 44.1 22.8333 44.1 20.7C44.1 18.4333 43.6333 16.4333 42.7 14.7C41.8333 12.9 40.6 11.4667 39 10.4C37.4667 9.33333 35.7 8.8 33.7 8.8H10.5ZM97.8898 72.5C92.2232 72.5 87.4565 71.5333 83.5898 69.6C79.7232 67.6 76.6232 64.9333 74.2898 61.6C71.9565 58.2 70.2565 54.3667 69.1898 50.1C68.1232 45.8333 67.5898 41.4333 67.5898 36.9V0.999996H76.5898V36.9C76.5898 40.3667 76.9232 43.7667 77.5898 47.1C78.3232 50.3667 79.4898 53.3 81.0898 55.9C82.6898 58.5 84.8565 60.5667 87.5898 62.1C90.3232 63.6333 93.7232 64.4 97.7898 64.4C101.923 64.4 105.357 63.6333 108.09 62.1C110.823 60.5 112.99 58.4 114.59 55.8C116.19 53.1333 117.323 50.1667 117.99 46.9C118.723 43.6333 119.09 40.3 119.09 36.9V0.999996H128.09V36.9C128.09 41.7 127.523 46.2667 126.39 50.6C125.323 54.8667 123.59 58.6333 121.19 61.9C118.79 65.1667 115.657 67.7667 111.79 69.7C107.99 71.5667 103.357 72.5 97.8898 72.5ZM144.078 72V0.999996H153.078V72H144.078ZM170.055 72V0.999996H179.055V64H218.655V72H170.055ZM228.453 72V0.999996H253.053C260.653 0.999996 266.986 2.6 272.053 5.79999C277.186 8.93333 281.02 13.2 283.553 18.6C286.086 23.9333 287.353 29.8667 287.353 36.4C287.353 43.6 285.953 49.8667 283.153 55.2C280.353 60.5333 276.386 64.6667 271.253 67.6C266.12 70.5333 260.053 72 253.053 72H228.453ZM278.253 36.4C278.253 31.0667 277.253 26.3333 275.253 22.2C273.32 18.0667 270.486 14.8333 266.753 12.5C263.02 10.1667 258.453 8.99999 253.053 8.99999H237.453V64H253.053C258.52 64 263.12 62.8 266.853 60.4C270.586 57.9333 273.42 54.6333 275.353 50.5C277.286 46.3 278.253 41.6 278.253 36.4ZM324.415 0.999996L345.915 38L367.615 0.999996H377.415L350.415 46.1V72H341.415V45.9L314.515 0.999996H324.415ZM411.452 72.5C406.452 72.5 401.919 71.5 397.852 69.5C393.786 67.5 390.252 64.8 387.252 61.4C384.319 57.9333 382.052 54.0667 380.452 49.8C378.852 45.4667 378.052 41.0333 378.052 36.5C378.052 31.7667 378.886 27.2667 380.552 23C382.286 18.6667 384.652 14.8333 387.652 11.5C390.719 8.1 394.286 5.43333 398.352 3.49999C402.419 1.5 406.852 0.499997 411.652 0.499997C416.652 0.499997 421.186 1.53333 425.252 3.6C429.319 5.66666 432.819 8.43333 435.752 11.9C438.686 15.3667 440.952 19.2333 442.552 23.5C444.152 27.7667 444.952 32.1333 444.952 36.6C444.952 41.3333 444.119 45.8667 442.452 50.2C440.786 54.4667 438.419 58.3 435.352 61.7C432.352 65.0333 428.819 67.6667 424.752 69.6C420.686 71.5333 416.252 72.5 411.452 72.5ZM387.152 36.5C387.152 40.1 387.719 43.6 388.852 47C390.052 50.3333 391.719 53.3 393.852 55.9C395.986 58.5 398.552 60.5667 401.552 62.1C404.552 63.6333 407.886 64.4 411.552 64.4C415.352 64.4 418.752 63.6 421.752 62C424.752 60.4 427.286 58.2667 429.352 55.6C431.486 52.9333 433.086 49.9333 434.152 46.6C435.286 43.2667 435.852 39.9 435.852 36.5C435.852 32.9 435.252 29.4333 434.052 26.1C432.919 22.7667 431.252 19.8 429.052 17.2C426.919 14.5333 424.352 12.4667 421.352 11C418.419 9.46667 415.152 8.7 411.552 8.7C407.752 8.7 404.352 9.5 401.352 11.1C398.352 12.6333 395.786 14.7333 393.652 17.4C391.586 20.0667 389.986 23.0667 388.852 26.4C387.719 29.6667 387.152 33.0333 387.152 36.5ZM486.757 72.5C481.09 72.5 476.324 71.5333 472.457 69.6C468.59 67.6 465.49 64.9333 463.157 61.6C460.824 58.2 459.124 54.3667 458.057 50.1C456.99 45.8333 456.457 41.4333 456.457 36.9V0.999996H465.457V36.9C465.457 40.3667 465.79 43.7667 466.457 47.1C467.19 50.3667 468.357 53.3 469.957 55.9C471.557 58.5 473.724 60.5667 476.457 62.1C479.19 63.6333 482.59 64.4 486.657 64.4C490.79 64.4 494.224 63.6333 496.957 62.1C499.69 60.5 501.857 58.4 503.457 55.8C505.057 53.1333 506.19 50.1667 506.857 46.9C507.59 43.6333 507.957 40.3 507.957 36.9V0.999996H516.957V36.9C516.957 41.7 516.39 46.2667 515.257 50.6C514.19 54.8667 512.457 58.6333 510.057 61.9C507.657 65.1667 504.524 67.7667 500.657 69.7C496.857 71.5667 492.224 72.5 486.757 72.5ZM532.945 72V0.999996H563.345C566.479 0.999996 569.345 1.66666 571.945 2.99999C574.545 4.26666 576.812 6 578.745 8.2C580.679 10.3333 582.179 12.7667 583.245 15.5C584.312 18.1667 584.845 20.9 584.845 23.7C584.845 26.9667 584.212 30.0667 582.945 33C581.745 35.9333 580.012 38.4333 577.745 40.5C575.545 42.5667 572.945 44 569.945 44.8L587.145 72H576.945L560.745 46.5H541.945V72H532.945ZM541.945 38.5H563.445C565.912 38.5 568.045 37.8333 569.845 36.5C571.712 35.1 573.145 33.2667 574.145 31C575.212 28.7333 575.745 26.3 575.745 23.7C575.745 21.0333 575.145 18.6 573.945 16.4C572.745 14.1333 571.179 12.3333 569.245 11C567.312 9.66666 565.179 8.99999 562.845 8.99999H541.945V38.5ZM60.1 118V189H46.4V158.7H14.2V189H0.4V118H14.2V146.7H46.4V118H60.1ZM74.9117 189V118H88.7117V189H74.9117ZM110.825 118L130.025 172.6L149.025 118H163.525L136.625 189H123.325L96.325 118H110.825ZM220.403 176.9V189H171.103V118H219.503V130.1H184.903V147.2H214.803V158.4H184.903V176.9H220.403Z" fill="black"/>
</svg>
