<svg width="892" height="190" viewBox="0 0 892 190" fill="none" xmlns="http://www.w3.org/2000/svg">
<path d="M5.5 72V0.999996H14.5V72H5.5ZM40.4766 17.6V72H31.4766V0.999996H39.0766L82.4766 56.5V1.09999H91.4766V72H83.2766L40.4766 17.6ZM159.63 8.99999H135.13V72H126.13V8.99999H101.63V0.999996H159.63V8.99999ZM218.055 64V72H169.855V0.999996H217.155V8.99999H178.855V32H212.155V39.5H178.855V64H218.055ZM257.535 72.5C252.868 72.5 248.502 71.5 244.435 69.5C240.435 67.4333 236.935 64.7 233.935 61.3C230.935 57.8333 228.602 53.9667 226.935 49.7C225.268 45.3667 224.435 40.9 224.435 36.3C224.435 31.5 225.268 26.9667 226.935 22.7C228.602 18.3667 230.902 14.5333 233.835 11.2C236.835 7.86666 240.335 5.26666 244.335 3.4C248.402 1.46666 252.802 0.499997 257.535 0.499997C264.402 0.499997 270.068 1.93333 274.535 4.79999C279.002 7.66666 282.368 11.4 284.635 16L277.735 20.8C275.668 16.6667 272.835 13.6 269.235 11.6C265.635 9.6 261.668 8.6 257.335 8.6C253.735 8.6 250.468 9.36667 247.535 10.9C244.602 12.4333 242.068 14.5333 239.935 17.2C237.868 19.8 236.268 22.7667 235.135 26.1C234.068 29.4333 233.535 32.9 233.535 36.5C233.535 40.3 234.135 43.9 235.335 47.3C236.602 50.6333 238.368 53.6 240.635 56.2C242.902 58.7333 245.535 60.7333 248.535 62.2C251.535 63.6667 254.768 64.4 258.235 64.4C262.302 64.4 266.168 63.3667 269.835 61.3C273.502 59.2333 276.968 56.0667 280.235 51.8V61.1C273.835 68.7 266.268 72.5 257.535 72.5ZM279.135 43.4H263.835V36.6H286.735V72H279.135V43.4ZM300.422 72V0.999996H330.822C333.955 0.999996 336.822 1.66666 339.422 2.99999C342.022 4.26666 344.289 6 346.222 8.2C348.155 10.3333 349.655 12.7667 350.722 15.5C351.789 18.1667 352.322 20.9 352.322 23.7C352.322 26.9667 351.689 30.0667 350.422 33C349.222 35.9333 347.489 38.4333 345.222 40.5C343.022 42.5667 340.422 44 337.422 44.8L354.622 72H344.422L328.222 46.5H309.422V72H300.422ZM309.422 38.5H330.922C333.389 38.5 335.522 37.8333 337.322 36.5C339.189 35.1 340.622 33.2667 341.622 31C342.689 28.7333 343.222 26.3 343.222 23.7C343.222 21.0333 342.622 18.6 341.422 16.4C340.222 14.1333 338.655 12.3333 336.722 11C334.789 9.66666 332.655 8.99999 330.322 8.99999H309.422V38.5ZM387.745 0.999996H395.345L424.345 72H414.745L406.345 51.2H376.545L368.245 72H358.645L387.745 0.999996ZM404.345 44.2L391.545 11.4L378.345 44.2H404.345ZM478.282 8.99999H453.782V72H444.782V8.99999H420.282V0.999996H478.282V8.99999ZM536.708 64V72H488.508V0.999996H535.808V8.99999H497.508V32H530.808V39.5H497.508V64H536.708ZM549.055 72V0.999996H573.655C581.255 0.999996 587.588 2.6 592.655 5.79999C597.788 8.93333 601.621 13.2 604.155 18.6C606.688 23.9333 607.955 29.8667 607.955 36.4C607.955 43.6 606.555 49.8667 603.755 55.2C600.955 60.5333 596.988 64.6667 591.855 67.6C586.721 70.5333 580.655 72 573.655 72H549.055ZM598.855 36.4C598.855 31.0667 597.855 26.3333 595.855 22.2C593.921 18.0667 591.088 14.8333 587.355 12.5C583.621 10.1667 579.055 8.99999 573.655 8.99999H558.055V64H573.655C579.121 64 583.721 62.8 587.455 60.4C591.188 57.9333 594.021 54.6333 595.955 50.5C597.888 46.3 598.855 41.6 598.855 36.4ZM668.414 1.4H676.914L686.314 26.1L695.814 1.4H704.314L692.014 32.3L704.214 61.6L728.214 0.999996H738.014L708.314 72H700.514L686.414 38.5L672.214 72H664.414L634.814 0.999996H644.514L668.614 61.6L680.714 32.3L668.414 1.4ZM747.297 72V0.999996H756.297V72H747.297ZM824.473 8.99999H799.973V72H790.973V8.99999H766.473V0.999996H824.473V8.99999ZM891.799 0.999996V72H882.799V39.7H843.699V72H834.699V0.999996H843.699V31.7H882.799V0.999996H891.799ZM34 189.5C29.3333 189.5 24.9667 188.533 20.9 186.6C16.8333 184.667 13.2667 182 10.2 178.6C7.2 175.2 4.83333 171.333 3.1 167C1.43333 162.667 0.6 158.067 0.6 153.2C0.6 148.333 1.43333 143.767 3.1 139.5C4.83333 135.233 7.2 131.433 10.2 128.1C13.2667 124.767 16.8333 122.167 20.9 120.3C25.0333 118.433 29.5333 117.5 34.4 117.5C41.1333 117.5 46.8 118.933 51.4 121.8C56.0667 124.6 59.5667 128.333 61.9 133L53.3 139.2C51.4333 135.333 48.7667 132.433 45.3 130.5C41.9 128.567 38.1667 127.6 34.1 127.6C30.7667 127.6 27.7333 128.3 25 129.7C22.2667 131.1 19.9 133.033 17.9 135.5C15.9667 137.9 14.5 140.667 13.5 143.8C12.5 146.867 12 150.1 12 153.5C12 157.1 12.5667 160.467 13.7 163.6C14.8333 166.733 16.4333 169.5 18.5 171.9C20.5667 174.233 23 176.067 25.8 177.4C28.6 178.733 31.6333 179.4 34.9 179.4C38.7667 179.4 42.4333 178.433 45.9 176.5C49.4333 174.5 52.7333 171.533 55.8 167.6V179C49.6 186 42.3333 189.5 34 189.5ZM54.7 161.4H39.8V153.1H64.1V189H54.7V161.4ZM76.875 189V118H88.075V189H76.875ZM156.221 127.9H132.621V189H121.321V127.9H97.6211V118H156.221V127.9ZM224.042 118V189H212.742V157.7H176.942V189H165.742V118H176.942V147.7H212.742V118H224.042ZM269.659 189.5C263.992 189.5 259.192 188.533 255.259 186.6C251.392 184.667 248.259 182.033 245.859 178.7C243.525 175.367 241.792 171.567 240.659 167.3C239.592 163.033 239.059 158.6 239.059 154V118H250.259V154C250.259 157.267 250.592 160.433 251.259 163.5C251.925 166.5 252.992 169.2 254.459 171.6C255.925 174 257.892 175.9 260.359 177.3C262.892 178.7 265.992 179.4 269.659 179.4C273.392 179.4 276.492 178.7 278.959 177.3C281.492 175.833 283.459 173.9 284.859 171.5C286.325 169.033 287.392 166.3 288.059 163.3C288.725 160.3 289.059 157.2 289.059 154V118H300.359V154C300.359 158.867 299.759 163.467 298.559 167.8C297.425 172.067 295.625 175.833 293.159 179.1C290.759 182.3 287.625 184.833 283.759 186.7C279.892 188.567 275.192 189.5 269.659 189.5ZM371.054 170.7C371.054 174.5 370.054 177.767 368.054 180.5C366.121 183.233 363.487 185.333 360.154 186.8C356.821 188.267 353.154 189 349.154 189H315.254V118H351.854C355.187 118 358.054 118.9 360.454 120.7C362.921 122.433 364.787 124.7 366.054 127.5C367.387 130.233 368.054 133.1 368.054 136.1C368.054 139.567 367.154 142.833 365.354 145.9C363.621 148.9 361.121 151.133 357.854 152.6C361.921 153.8 365.121 156 367.454 159.2C369.854 162.333 371.054 166.167 371.054 170.7ZM359.554 168.6C359.554 166.6 359.121 164.8 358.254 163.2C357.454 161.533 356.321 160.2 354.854 159.2C353.454 158.133 351.787 157.6 349.854 157.6H326.454V179.3H349.154C351.154 179.3 352.921 178.833 354.454 177.9C356.054 176.9 357.287 175.6 358.154 174C359.087 172.333 359.554 170.533 359.554 168.6ZM326.454 127.7V148.6H347.054C348.921 148.6 350.587 148.167 352.054 147.3C353.521 146.367 354.687 145.133 355.554 143.6C356.421 142 356.854 140.2 356.854 138.2C356.854 136.133 356.454 134.333 355.654 132.8C354.854 131.2 353.754 129.967 352.354 129.1C351.021 128.167 349.454 127.7 347.654 127.7H326.454ZM380.834 189V176.2H389.934V189H380.834Z" fill="black"/>
</svg>
