<svg width="1134" height="73" viewBox="0 0 1134 73" fill="none" xmlns="http://www.w3.org/2000/svg">
<path d="M0.9 36C0.9 31.6667 1.63333 27.4333 3.1 23.3C4.63333 19.1 6.83333 15.3 9.7 11.9C12.6333 8.43333 16.2 5.7 20.4 3.7C24.6 1.63333 29.3667 0.599995 34.7 0.599995C41.0333 0.599995 46.4667 2.06666 51 5C55.5333 7.86666 58.9 11.5667 61.1 16.1L54 20.7C52.6 17.7 50.8 15.3333 48.6 13.6C46.4667 11.8 44.1333 10.5333 41.6 9.8C39.1333 9.06666 36.7 8.7 34.3 8.7C30.3667 8.7 26.8667 9.5 23.8 11.1C20.8 12.7 18.2667 14.8333 16.2 17.5C14.1333 20.1667 12.5667 23.1667 11.5 26.5C10.5 29.7667 10 33.0667 10 36.4C10 40.0667 10.6 43.6 11.8 47C13.0667 50.4 14.8 53.4 17 56C19.2 58.6 21.8 60.6667 24.8 62.2C27.8 63.7333 31.0667 64.5 34.6 64.5C37.0667 64.5 39.6 64.0667 42.2 63.2C44.8 62.3333 47.2333 61 49.5 59.2C51.7667 57.3333 53.5667 54.9333 54.9 52L62.4 56.1C60.9333 59.6333 58.6667 62.6333 55.6 65.1C52.5333 67.5667 49.1 69.4333 45.3 70.7C41.5667 71.9667 37.8667 72.6 34.2 72.6C29.3333 72.6 24.8667 71.5667 20.8 69.5C16.7333 67.3667 13.2 64.5667 10.2 61.1C7.26667 57.5667 4.96667 53.6333 3.3 49.3C1.7 44.9 0.9 40.4667 0.9 36ZM101.683 72.5C96.6828 72.5 92.1495 71.5 88.0828 69.5C84.0161 67.5 80.4828 64.8 77.4828 61.4C74.5495 57.9333 72.2828 54.0667 70.6828 49.8C69.0828 45.4667 68.2828 41.0333 68.2828 36.5C68.2828 31.7667 69.1161 27.2667 70.7828 23C72.5161 18.6667 74.8828 14.8333 77.8828 11.5C80.9495 8.1 84.5161 5.43333 88.5828 3.49999C92.6495 1.5 97.0828 0.499997 101.883 0.499997C106.883 0.499997 111.416 1.53333 115.483 3.6C119.549 5.66666 123.049 8.43333 125.983 11.9C128.916 15.3667 131.183 19.2333 132.783 23.5C134.383 27.7667 135.183 32.1333 135.183 36.6C135.183 41.3333 134.349 45.8667 132.683 50.2C131.016 54.4667 128.649 58.3 125.583 61.7C122.583 65.0333 119.049 67.6667 114.983 69.6C110.916 71.5333 106.483 72.5 101.683 72.5ZM77.3828 36.5C77.3828 40.1 77.9495 43.6 79.0828 47C80.2828 50.3333 81.9495 53.3 84.0828 55.9C86.2161 58.5 88.7828 60.5667 91.7828 62.1C94.7828 63.6333 98.1161 64.4 101.783 64.4C105.583 64.4 108.983 63.6 111.983 62C114.983 60.4 117.516 58.2667 119.583 55.6C121.716 52.9333 123.316 49.9333 124.383 46.6C125.516 43.2667 126.083 39.9 126.083 36.5C126.083 32.9 125.483 29.4333 124.283 26.1C123.149 22.7667 121.483 19.8 119.283 17.2C117.149 14.5333 114.583 12.4667 111.583 11C108.649 9.46667 105.383 8.7 101.783 8.7C97.9828 8.7 94.5828 9.5 91.5828 11.1C88.5828 12.6333 86.0161 14.7333 83.8828 17.4C81.8161 20.0667 80.2161 23.0667 79.0828 26.4C77.9495 29.6667 77.3828 33.0333 77.3828 36.5ZM156.688 17.6V72H147.688V0.999996H155.288L198.688 56.5V1.09999H207.688V72H199.488L156.688 17.6ZM233.641 17.6V72H224.641V0.999996H232.241L275.641 56.5V1.09999H284.641V72H276.441L233.641 17.6ZM349.794 64V72H301.594V0.999996H348.894V8.99999H310.594V32H343.894V39.5H310.594V64H349.794ZM356.173 36C356.173 31.6667 356.907 27.4333 358.373 23.3C359.907 19.1 362.107 15.3 364.973 11.9C367.907 8.43333 371.473 5.7 375.673 3.7C379.873 1.63333 384.64 0.599995 389.973 0.599995C396.307 0.599995 401.74 2.06666 406.273 5C410.807 7.86666 414.173 11.5667 416.373 16.1L409.273 20.7C407.873 17.7 406.073 15.3333 403.873 13.6C401.74 11.8 399.407 10.5333 396.873 9.8C394.407 9.06666 391.973 8.7 389.573 8.7C385.64 8.7 382.14 9.5 379.073 11.1C376.073 12.7 373.54 14.8333 371.473 17.5C369.407 20.1667 367.84 23.1667 366.773 26.5C365.773 29.7667 365.273 33.0667 365.273 36.4C365.273 40.0667 365.873 43.6 367.073 47C368.34 50.4 370.073 53.4 372.273 56C374.473 58.6 377.073 60.6667 380.073 62.2C383.073 63.7333 386.34 64.5 389.873 64.5C392.34 64.5 394.873 64.0667 397.473 63.2C400.073 62.3333 402.507 61 404.773 59.2C407.04 57.3333 408.84 54.9333 410.173 52L417.673 56.1C416.207 59.6333 413.94 62.6333 410.873 65.1C407.807 67.5667 404.373 69.4333 400.573 70.7C396.84 71.9667 393.14 72.6 389.473 72.6C384.607 72.6 380.14 71.5667 376.073 69.5C372.007 67.3667 368.473 64.5667 365.473 61.1C362.54 57.5667 360.24 53.6333 358.573 49.3C356.973 44.9 356.173 40.4667 356.173 36ZM480.138 8.99999H455.638V72H446.638V8.99999H422.138V0.999996H480.138V8.99999ZM531.104 0.999996H538.704L567.704 72H558.104L549.704 51.2H519.904L511.604 72H502.004L531.104 0.999996ZM547.704 44.2L534.904 11.4L521.704 44.2H547.704ZM586.18 17.6V72H577.18V0.999996H584.78L628.18 56.5V1.09999H637.18V72H628.98L586.18 17.6ZM654.133 72V0.999996H678.733C686.333 0.999996 692.666 2.6 697.733 5.79999C702.866 8.93333 706.699 13.2 709.233 18.6C711.766 23.9333 713.033 29.8667 713.033 36.4C713.033 43.6 711.633 49.8667 708.833 55.2C706.033 60.5333 702.066 64.6667 696.933 67.6C691.799 70.5333 685.733 72 678.733 72H654.133ZM703.933 36.4C703.933 31.0667 702.933 26.3333 700.933 22.2C698.999 18.0667 696.166 14.8333 692.433 12.5C688.699 10.1667 684.133 8.99999 678.733 8.99999H663.133V64H678.733C684.199 64 688.799 62.8 692.533 60.4C696.266 57.9333 699.099 54.6333 701.033 50.5C702.966 46.3 703.933 41.6 703.933 36.4ZM746.408 36C746.408 31.6667 747.141 27.4333 748.608 23.3C750.141 19.1 752.341 15.3 755.208 11.9C758.141 8.43333 761.708 5.7 765.908 3.7C770.108 1.63333 774.874 0.599995 780.208 0.599995C786.541 0.599995 791.974 2.06666 796.508 5C801.041 7.86666 804.408 11.5667 806.608 16.1L799.508 20.7C798.108 17.7 796.308 15.3333 794.108 13.6C791.974 11.8 789.641 10.5333 787.108 9.8C784.641 9.06666 782.208 8.7 779.808 8.7C775.874 8.7 772.374 9.5 769.308 11.1C766.308 12.7 763.774 14.8333 761.708 17.5C759.641 20.1667 758.074 23.1667 757.008 26.5C756.008 29.7667 755.508 33.0667 755.508 36.4C755.508 40.0667 756.108 43.6 757.308 47C758.574 50.4 760.308 53.4 762.508 56C764.708 58.6 767.308 60.6667 770.308 62.2C773.308 63.7333 776.574 64.5 780.108 64.5C782.574 64.5 785.108 64.0667 787.708 63.2C790.308 62.3333 792.741 61 795.008 59.2C797.274 57.3333 799.074 54.9333 800.408 52L807.908 56.1C806.441 59.6333 804.174 62.6333 801.108 65.1C798.041 67.5667 794.608 69.4333 790.808 70.7C787.074 71.9667 783.374 72.6 779.708 72.6C774.841 72.6 770.374 71.5667 766.308 69.5C762.241 67.3667 758.708 64.5667 755.708 61.1C752.774 57.5667 750.474 53.6333 748.808 49.3C747.208 44.9 746.408 40.4667 746.408 36ZM819.172 72V0.999996H849.572C852.705 0.999996 855.572 1.66666 858.172 2.99999C860.772 4.26666 863.039 6 864.972 8.2C866.905 10.3333 868.405 12.7667 869.472 15.5C870.539 18.1667 871.072 20.9 871.072 23.7C871.072 26.9667 870.439 30.0667 869.172 33C867.972 35.9333 866.239 38.4333 863.972 40.5C861.772 42.5667 859.172 44 856.172 44.8L873.372 72H863.172L846.972 46.5H828.172V72H819.172ZM828.172 38.5H849.672C852.139 38.5 854.272 37.8333 856.072 36.5C857.939 35.1 859.372 33.2667 860.372 31C861.439 28.7333 861.972 26.3 861.972 23.7C861.972 21.0333 861.372 18.6 860.172 16.4C858.972 14.1333 857.405 12.3333 855.472 11C853.539 9.66666 851.405 8.99999 849.072 8.99999H828.172V38.5ZM933.095 64V72H884.895V0.999996H932.195V8.99999H893.895V32H927.195V39.5H893.895V64H933.095ZM967.041 0.999996H974.641L1003.64 72H994.041L985.641 51.2H955.841L947.541 72H937.941L967.041 0.999996ZM983.641 44.2L970.841 11.4L957.641 44.2H983.641ZM1057.58 8.99999H1033.08V72H1024.08V8.99999H999.579V0.999996H1057.58V8.99999ZM1116 64V72H1067.8V0.999996H1115.1V8.99999H1076.8V32H1110.1V39.5H1076.8V64H1116ZM1126.25 72V60.8H1133.65V72H1126.25Z" fill="black"/>
</svg>
